<svg xmlns="http://www.w3.org/2000/svg" viewBox="0 0 640 512" width="100" height="100">
  <!-- Default car icon -->
  <rect width="640" height="512" fill="#1a1a1a"/>
  <path fill="#FF1E1E" d="M171.3 96H224v96H111.3l30.4-75.9C146.5 104 158.2 96 171.3 96zM272 192V96h81.2c9.7 0 18.9 4.4 25 12l67.2 84H272zm256.2 1L428.2 68c-18.2-22.8-45.8-36-75-36H171.3c-39.3 0-74.6 23.9-89.1 60.3L40.6 196.4C16.8 205.8 0 228.9 0 256V368c0 17.7 14.3 32 32 32H65.3c7.6 45.4 47.1 80 94.7 80s87.1-34.6 94.7-80H385.3c7.6 45.4 47.1 80 94.7 80s87.1-34.6 94.7-80H608c17.7 0 32-14.3 32-32V320c0-65.2-48.8-119-111.8-127zM160 432a48 48 0 1 1 0-96 48 48 0 1 1 0 96zm320 0a48 48 0 1 1 0-96 48 48 0 1 1 0 96z"/>
  <text x="320" y="480" font-family="Arial" font-size="40" fill="#FFFFFF" text-anchor="middle">Véhicule</text>
</svg>
